<svg xmlns="http://www.w3.org/2000/svg" width="23.416" height="24.895" viewBox="0 0 23.416 24.895">
  <path id="패스_825" data-name="패스 825" d="M226.215,84.2H205.5a1.007,1.007,0,0,0-1.1.872v22.639a.884.884,0,0,0,.635.79,1.34,1.34,0,0,0,1.173-.12l9.651-6.37,9.651,6.37a1.288,1.288,0,0,0,.706.2,1.352,1.352,0,0,0,.467-.082.883.883,0,0,0,.634-.79V85.075a1.006,1.006,0,0,0-1.1-.872Zm-1.1,21.648-8.549-5.643a1.332,1.332,0,0,0-1.412,0l-8.549,5.643v-19.9h18.51Z" transform="translate(-204.15 -83.953)" fill="#a5b4e3" stroke="#a5b4e3" stroke-width="0.5"/>
</svg>
