<svg xmlns="http://www.w3.org/2000/svg" width="15.984" height="21.323" viewBox="0 0 15.984 21.323">
  <path id="패스_834" data-name="패스 834" d="M219.13,84.2H205.144a.744.744,0,0,0-.744.744v19.322a.744.744,0,0,0,1.22.571l6.517-5.437,6.517,5.437a.744.744,0,0,0,1.22-.571V84.947a.743.743,0,0,0-.744-.744Zm0,0-6.993,15.2c-.138-.115.169,0,0,0s-7.6-14.572-7.737-14.456l1.488,17.732,6.249-3.276,6.993-15.2Z" transform="translate(-204.14 -83.953)" fill="#333" stroke="#333" stroke-width="0.5" opacity="0.66"/>
</svg>
