<?xml version="1.0" encoding="utf-8"?>
<!-- Generator: Adobe Illustrator 27.0.1, SVG Export Plug-In . SVG Version: 6.00 Build 0)  -->
<svg version="1.1" id="Layer_1" xmlns="http://www.w3.org/2000/svg" xmlns:xlink="http://www.w3.org/1999/xlink" x="0px" y="0px"
	 viewBox="0 0 24 24" style="enable-background:new 0 0 24 24;" xml:space="preserve">
<style type="text/css">
	.st0{fill:none;stroke:#b677a5;stroke-width:2;stroke-linecap:round;stroke-linejoin:round;}
</style>
<path class="st0" d="M10,13c1.7,2.2,4.8,2.7,7,1c0.2-0.1,0.4-0.3,0.5-0.5l3-3c1.9-2,1.9-5.2-0.1-7.1c-1.9-1.9-5-1.9-6.9,0l-1.7,1.7"
	/>
<path class="st0" d="M14,11c-1.7-2.2-4.8-2.7-7-1c-0.2,0.1-0.4,0.3-0.5,0.5l-3,3c-1.9,2-1.9,5.2,0.1,7.1c1.9,1.9,5,1.9,6.9,0
	l1.7-1.7"/>
</svg>
