<?xml version="1.0" encoding="utf-8"?>
<!-- Generator: Adobe Illustrator 27.0.0, SVG Export Plug-In . SVG Version: 6.00 Build 0)  -->
<svg version="1.1" id="Layer_1" xmlns="http://www.w3.org/2000/svg" xmlns:xlink="http://www.w3.org/1999/xlink" x="0px" y="0px"
	 viewBox="0 0 20 15" style="enable-background:new 0 0 20 15;" xml:space="preserve">
<style type="text/css">
	.st0{fill:#ffffff;}
</style>
<g id="그룹_31" transform="translate(-369 -66.096)">
	<path id="사각형_4" class="st0" d="M370.5,66.1h17c0.8,0,1.5,0.7,1.5,1.5l0,0c0,0.8-0.7,1.5-1.5,1.5h-17c-0.8,0-1.5-0.7-1.5-1.5
		l0,0C369,66.8,369.7,66.1,370.5,66.1z"/>
	<path id="사각형_5" class="st0" d="M370.5,72.1h17c0.8,0,1.5,0.7,1.5,1.5l0,0c0,0.8-0.7,1.5-1.5,1.5h-17c-0.8,0-1.5-0.7-1.5-1.5
		l0,0C369,72.8,369.7,72.1,370.5,72.1z"/>
	<path id="사각형_6" class="st0" d="M370.5,78.1h17c0.8,0,1.5,0.7,1.5,1.5l0,0c0,0.8-0.7,1.5-1.5,1.5h-17c-0.8,0-1.5-0.7-1.5-1.5
		l0,0C369,78.8,369.7,78.1,370.5,78.1z"/>
</g>
</svg>
