<?xml version="1.0" encoding="utf-8"?>
<!-- Generator: Adobe Illustrator 27.0.0, SVG Export Plug-In . SVG Version: 6.00 Build 0)  -->
<svg version="1.1" id="Layer_1" xmlns="http://www.w3.org/2000/svg" xmlns:xlink="http://www.w3.org/1999/xlink" x="0px" y="0px"
	 viewBox="0 0 16 21.3" style="enable-background:new 0 0 16 21.3;" xml:space="preserve">
<style type="text/css">
	.st0{opacity:0.66;fill:#333333;stroke:#333333;stroke-width:0.5;enable-background:new    ;}
</style>
<path id="패스_834" class="st0" d="M15,0.2H1C0.6,0.2,0.3,0.6,0.3,1v0v19.3c0,0.4,0.3,0.7,0.7,0.7c0.2,0,0.3-0.1,0.5-0.2L8,15.4
	l6.5,5.4c0.3,0.3,0.8,0.2,1-0.1c0.1-0.1,0.2-0.3,0.2-0.5V1C15.7,0.6,15.4,0.3,15,0.2C15,0.2,15,0.2,15,0.2L15,0.2z M15,0.2L8,15.4
	c-0.1-0.1,0.2,0,0,0S0.4,0.9,0.3,1l1.5,17.7L8,15.4L15,0.2z"/>
</svg>
