<svg xmlns="http://www.w3.org/2000/svg" width="26" height="26" viewBox="0 0 26 26">
  <g id="그룹_56" data-name="그룹 56" transform="translate(-351 -408)">
    <g id="arrow-right-circle" transform="translate(377 410)">
      <circle id="타원_1" data-name="타원 1" cx="12" cy="12" r="12" transform="translate(-25 -1)" fill="#6376ac" stroke="#586ea3" stroke-linecap="round" stroke-linejoin="round" stroke-width="2"/>
    </g>
    <g id="noun-reply-2274731" transform="translate(-92.839 0.736)">
      <path id="패스_598" data-name="패스 598" d="M650.513,387.14h-6.433a4.6,4.6,0,0,1-4.6-4.6v-3.65c0-.363,1.313-.363,1.313,0v3.676a3.283,3.283,0,0,0,3.282,3.282h6.433a.656.656,0,1,1,0,1.313Z" transform="translate(-188.988 35.383)" fill="#fff" stroke="#fff" stroke-width="1"/>
      <path id="패스_599" data-name="패스 599" d="M761.065,458.4a.692.692,0,0,1-.491-1.183l3.46-3.46-3.46-3.46a.692.692,0,0,1,.976-.976l3.965,3.965a.692.692,0,0,1,0,.976l-3.965,3.937a.692.692,0,0,1-.484.2Z" transform="translate(-302.534 -31.877)" fill="#fff" stroke="#fff" stroke-width="1"/>
    </g>
  </g>
</svg>
