<?xml version="1.0" encoding="utf-8"?>
<!-- Generator: Adobe Illustrator 27.0.0, SVG Export Plug-In . SVG Version: 6.00 Build 0)  -->
<svg version="1.1" id="Layer_1" xmlns="http://www.w3.org/2000/svg" xmlns:xlink="http://www.w3.org/1999/xlink" x="0px" y="0px"
	 viewBox="0 0 26 26" style="enable-background:new 0 0 26 26;" xml:space="preserve">
<style type="text/css">
	.st0{fill:#6376AC;stroke:#586EA3;stroke-width:2;stroke-linecap:round;stroke-linejoin:round;}
	.st1{fill:#FFFFFF;stroke:#FFFFFF;}
</style>
<g id="그룹_56" transform="translate(-351 -408)">
	<g id="arrow-right-circle" transform="translate(377 410)">
		<circle id="타원_1" class="st0" cx="-13" cy="11" r="12"/>
	</g>
	<g id="noun-reply-2274731" transform="translate(-92.839 0.736)">
		<path id="패스_598" class="st1" d="M461.5,422.5h-6.4c-2.5,0-4.6-2.1-4.6-4.6v-3.6c0-0.4,1.3-0.4,1.3,0v3.7
			c0,1.8,1.5,3.3,3.3,3.3h6.4c0.4,0,0.7,0.3,0.7,0.7S461.9,422.5,461.5,422.5L461.5,422.5z"/>
		<path id="패스_599" class="st1" d="M458.5,426.5c-0.4,0-0.7-0.3-0.7-0.7c0-0.2,0.1-0.4,0.2-0.5l3.5-3.5l-3.5-3.5
			c-0.2-0.3-0.2-0.7,0.1-1c0.3-0.2,0.6-0.2,0.9,0l4,4c0.3,0.3,0.3,0.7,0,1l-4,3.9C458.9,426.4,458.7,426.5,458.5,426.5L458.5,426.5z
			"/>
	</g>
</g>
</svg>
